<svg width="220" height="179" viewBox="0 0 220 179" fill="none" xmlns="http://www.w3.org/2000/svg">
<path d="M49.9878 137.171C60.401 137.171 68.8425 128.709 68.8425 118.271C68.8425 107.833 60.401 99.3714 49.9878 99.3714C39.5746 99.3714 31.1331 107.833 31.1331 118.271C31.1331 128.709 39.5746 137.171 49.9878 137.171Z" fill="#04D25A"/>
<path d="M138.526 121.609C149.775 121.609 158.894 112.468 158.894 101.192C158.894 89.9162 149.775 80.7751 138.526 80.7751C127.277 80.7751 118.157 89.9162 118.157 101.192C118.157 112.468 127.277 121.609 138.526 121.609Z" fill="#04D25A"/>
<path d="M105.526 59.8016V48.7247H177.295V59.8016" stroke="#0A2E36" stroke-width="2" stroke-miterlimit="10"/>
<path d="M146.936 48.7247V34.8997H152.453L169.02 40.4297V48.7247" stroke="#0A2E36" stroke-width="2" stroke-miterlimit="10"/>
<path d="M113.801 48.7247V34.8997H119.318L135.885 40.4297V48.7247" stroke="#0A2E36" stroke-width="2" stroke-miterlimit="10"/>
<path d="M77.3533 128.977H185.587V59.8015H91.7172" stroke="#0A2E36" stroke-width="2" stroke-miterlimit="10"/>
<path d="M96.0229 115.135L88.9587 34.8997H66.8746L62.5183 84.2987" stroke="#0A2E36" stroke-width="2" stroke-miterlimit="10"/>
<path d="M105.526 68.0965V76.4084" stroke="#0A2E36" stroke-width="2" stroke-miterlimit="10"/>
<path d="M119.318 68.0965V76.4084" stroke="#0A2E36" stroke-width="2" stroke-miterlimit="10"/>
<path d="M133.127 68.0965V76.4084" stroke="#0A2E36" stroke-width="2" stroke-miterlimit="10"/>
<path d="M146.936 68.0965V76.4084" stroke="#0A2E36" stroke-width="2" stroke-miterlimit="10"/>
<path d="M160.728 68.0965V76.4084" stroke="#0A2E36" stroke-width="2" stroke-miterlimit="10"/>
<path d="M174.537 68.0965V76.4084" stroke="#0A2E36" stroke-width="2" stroke-miterlimit="10"/>
<path d="M64.1162 1.68597H105.526" stroke="#0A2E36" stroke-width="2" stroke-miterlimit="10"/>
<path d="M88.9587 12.7628H130.369" stroke="#0A2E36" stroke-width="2" stroke-miterlimit="10"/>
<path d="M83.442 12.7628H55.8242" stroke="#0A2E36" stroke-width="2" stroke-miterlimit="10"/>
<path d="M135.885 12.7628H144.177" stroke="#0A2E36" stroke-width="2" stroke-miterlimit="10"/>
<path d="M72.3915 23.8228H100.009" stroke="#0A2E36" stroke-width="2" stroke-miterlimit="10"/>
<path d="M66.8746 23.8228H61.3578" stroke="#0A2E36" stroke-width="2" stroke-miterlimit="10"/>
<path d="M111.043 1.68597H119.318" stroke="#0A2E36" stroke-width="2" stroke-miterlimit="10"/>
<path d="M155.211 12.7628H160.728" stroke="#0A2E36" stroke-width="2" stroke-miterlimit="10"/>
<path d="M126.937 89.559C120.462 96.05 120.462 106.554 126.937 113.045C131.344 117.462 137.635 118.878 143.236 117.26" stroke="#0A2E36" stroke-width="2" stroke-miterlimit="10"/>
<path d="M150.367 113.045C156.843 106.554 156.843 96.05 150.367 89.559C145.96 85.1417 139.67 83.7255 134.069 85.3441" stroke="#0A2E36" stroke-width="2" stroke-miterlimit="10"/>
<path d="M162.073 113.045H150.367L144.514 103.266" stroke="#0A2E36" stroke-width="2" stroke-miterlimit="10"/>
<path d="M115.231 89.559H126.937L132.791 99.3545" stroke="#0A2E36" stroke-width="2" stroke-miterlimit="10"/>
<path d="M28.1223 109.622L19.7125 102.878V100.147C19.7125 94.6507 23.026 89.7108 28.1055 87.6539L44.555 80.9605L41.1911 69.1587L59.6927 72.5307L54.6468 80.9605L75.503 89.7782C77.37 90.5706 78.581 92.4083 78.581 94.4315V112.994L71.8532 118.052" stroke="#0A2E36" stroke-width="2" stroke-miterlimit="10"/>
<path d="M24.7583 106.25L19.7125 109.622V134.912L17.8287 140.594C17.4923 141.622 17.6605 142.752 18.2828 143.628C18.922 144.505 19.9311 145.028 21.0076 145.028H78.1773C79.3379 145.028 80.4311 144.421 81.0366 143.426C81.6421 142.431 81.7094 141.184 81.188 140.138L78.581 134.895V119.721L75.2171 114.663" stroke="#0A2E36" stroke-width="2" stroke-miterlimit="10"/>
<path d="M44.5549 80.9606H54.6467" stroke="#0A2E36" stroke-width="2" stroke-miterlimit="10"/>
<path d="M19.7125 134.912L28.1223 133.226" stroke="#0A2E36" stroke-width="2" stroke-miterlimit="10"/>
<path d="M78.5809 134.912L70.1711 136.598" stroke="#0A2E36" stroke-width="2" stroke-miterlimit="10"/>
<path d="M51.8546 109.824H57.6742L60.584 104.783" stroke="#0A2E36" stroke-width="2" stroke-miterlimit="10"/>
<path d="M41.9984 120.8L39.0886 115.742H33.269" stroke="#0A2E36" stroke-width="2" stroke-miterlimit="10"/>
<path d="M56.2614 134.895L53.3516 129.854L56.2782 124.779" stroke="#0A2E36" stroke-width="2" stroke-miterlimit="10"/>
<path d="M43.2599 89.3904L49.9877 80.9606" stroke="#0A2E36" stroke-width="2" stroke-miterlimit="10"/>
<path d="M55.0335 87.7045L49.9877 80.9606" stroke="#0A2E36" stroke-width="2" stroke-miterlimit="10"/>
<path d="M65.1253 124.796C65.1253 123.919 64.8898 123.11 64.5029 122.385" stroke="#0A2E36" stroke-width="2" stroke-miterlimit="10"/>
<path d="M60.0795 129.854C62.8715 129.854 65.1253 127.595 65.1253 124.796" stroke="#0A2E36" stroke-width="2" stroke-miterlimit="10"/>
<path d="M60.0794 129.854H53.3516" stroke="#0A2E36" stroke-width="2" stroke-miterlimit="10"/>
<path d="M46.6238 129.854H39.896" stroke="#0A2E36" stroke-width="2" stroke-miterlimit="10"/>
<path d="M34.8501 124.796C34.8501 127.595 37.1039 129.854 39.896 129.854" stroke="#0A2E36" stroke-width="2" stroke-miterlimit="10"/>
<path d="M35.4724 122.385C35.0856 123.093 34.8501 123.919 34.8501 124.796" stroke="#0A2E36" stroke-width="2" stroke-miterlimit="10"/>
<path d="M39.0886 115.742L35.4724 122.385" stroke="#0A2E36" stroke-width="2" stroke-miterlimit="10"/>
<path d="M45.5642 103.839L42.318 109.808" stroke="#0A2E36" stroke-width="2" stroke-miterlimit="10"/>
<path d="M49.9876 101.192C48.087 101.192 46.4219 102.271 45.5641 103.839" stroke="#0A2E36" stroke-width="2" stroke-miterlimit="10"/>
<path d="M54.4112 103.839C53.5534 102.271 51.9051 101.192 49.9877 101.192" stroke="#0A2E36" stroke-width="2" stroke-miterlimit="10"/>
<path d="M57.6743 109.824L54.4113 103.839" stroke="#0A2E36" stroke-width="2" stroke-miterlimit="10"/>
<path d="M64.5029 122.385L60.8867 115.742" stroke="#0A2E36" stroke-width="2" stroke-miterlimit="10"/>
<path d="M55.8747 157.79L69.1117 152.26C73.0138 150.625 77.5215 152.311 79.4221 156.104L45.9848 175.915C43.6973 177.263 40.9725 177.668 38.3991 177.027L17.812 171.868C16.2982 171.481 14.7004 171.464 13.1698 171.801L0.353271 174.65" stroke="#0A2E36" stroke-width="2" stroke-miterlimit="10"/>
<path d="M30.6453 162.848H51.6698C53.9909 162.848 55.8747 160.96 55.8747 158.633C55.8747 156.307 53.9909 154.419 51.6698 154.419H39.0551L27.3655 150.895C24.0016 149.883 20.4359 149.765 17.0215 150.558L0.370117 154.402" stroke="#0A2E36" stroke-width="2" stroke-miterlimit="10"/>
<path d="M220 141.436H107.309" stroke="#0A2E36" stroke-width="2" stroke-miterlimit="10"/>
<path d="M96.0229 141.436H88.2859" stroke="#0A2E36" stroke-width="2" stroke-miterlimit="10"/>
<path d="M103.794 141.436H100.009" stroke="#0A2E36" stroke-width="2" stroke-miterlimit="10"/>
<path d="M122.093 155.11H90.5902" stroke="#0A2E36" stroke-width="2" stroke-miterlimit="10"/>
<path d="M68.9434 41.8122V46.769" stroke="#0A2E36" stroke-width="2" stroke-miterlimit="10"/>
<path d="M73.4509 41.8122V46.769" stroke="#0A2E36" stroke-width="2" stroke-miterlimit="10"/>
<path d="M77.9755 41.8122V46.769" stroke="#0A2E36" stroke-width="2" stroke-miterlimit="10"/>
<path d="M82.4832 41.8122V46.769" stroke="#0A2E36" stroke-width="2" stroke-miterlimit="10"/>
<path d="M87.0076 41.8122V46.769" stroke="#0A2E36" stroke-width="2" stroke-miterlimit="10"/>
<path d="M113.801 42.1494H124.852" stroke="#0A2E36" stroke-width="2" stroke-miterlimit="10"/>
<path d="M146.936 42.1494H157.969" stroke="#0A2E36" stroke-width="2" stroke-miterlimit="10"/>
<path d="M185.587 123.599H86.2003" stroke="#0A2E36" stroke-width="2" stroke-miterlimit="10"/>
<path d="M185.587 113.045H204.055" stroke="#0A2E36" stroke-width="2" stroke-miterlimit="10"/>
<path d="M199.06 119.064H217.527" stroke="#0A2E36" stroke-width="2" stroke-miterlimit="10"/>
<path d="M208.294 113.045H210.531" stroke="#0A2E36" stroke-width="2" stroke-miterlimit="10"/>
</svg>
