<svg width="251" height="141" viewBox="0 0 251 141" fill="none" xmlns="http://www.w3.org/2000/svg">
<path d="M218.998 58.75H239.21C239.21 58.75 239.21 104.676 239.21 103.534C239.21 102.393 218.206 103.534 218.206 103.534L218.998 58.75Z" fill="#04D25A"/>
<path d="M170.152 109.107C178.524 109.107 185.311 102.343 185.311 94C185.311 85.6566 178.524 78.8929 170.152 78.8929C161.78 78.8929 154.993 85.6566 154.993 94C154.993 102.343 161.78 109.107 170.152 109.107Z" fill="#04D25A"/>
<path d="M114.569 130.929C122.941 130.929 129.728 124.165 129.728 115.821C129.728 107.478 122.941 100.714 114.569 100.714C106.197 100.714 99.4097 107.478 99.4097 115.821C99.4097 124.165 106.197 130.929 114.569 130.929Z" fill="#04D25A"/>
<path d="M60.6699 110.786C69.042 110.786 75.8289 104.022 75.8289 95.6786C75.8289 87.3351 69.042 80.5714 60.6699 80.5714C52.2978 80.5714 45.5109 87.3351 45.5109 95.6786C45.5109 104.022 52.2978 110.786 60.6699 110.786Z" fill="#04D25A"/>
<path d="M74.8519 95.6786H84.958" stroke="#0A2E36" stroke-width="2" stroke-miterlimit="10"/>
<path d="M95.064 94H135.488" stroke="#0A2E36" stroke-width="2" stroke-miterlimit="10"/>
<path d="M155.7 95.6786H145.594" stroke="#0A2E36" stroke-width="2" stroke-miterlimit="10"/>
<path d="M148.963 87.2857V80.5714L143.91 77.2143H86.6422L81.5892 80.5714V87.2857H148.963Z" stroke="#0A2E36" stroke-width="2" stroke-miterlimit="10"/>
<path d="M145.594 87.2858L142.225 139.321H88.3267L84.958 87.2858" stroke="#0A2E36" stroke-width="2" stroke-miterlimit="10"/>
<path d="M106.854 77.2143V82.25" stroke="#0A2E36" stroke-width="2" stroke-miterlimit="10"/>
<path d="M115.276 77.2143V82.25" stroke="#0A2E36" stroke-width="2" stroke-miterlimit="10"/>
<path d="M123.698 77.2143V82.25" stroke="#0A2E36" stroke-width="2" stroke-miterlimit="10"/>
<path d="M101.801 94V102.393" stroke="#0A2E36" stroke-width="2" stroke-miterlimit="10"/>
<path d="M108.539 94V102.393" stroke="#0A2E36" stroke-width="2" stroke-miterlimit="10"/>
<path d="M115.276 94V102.393" stroke="#0A2E36" stroke-width="2" stroke-miterlimit="10"/>
<path d="M122.013 94V102.393" stroke="#0A2E36" stroke-width="2" stroke-miterlimit="10"/>
<path d="M128.751 94V102.393" stroke="#0A2E36" stroke-width="2" stroke-miterlimit="10"/>
<path d="M222.653 10.5414C222.653 14.2175 225.634 17.1886 229.323 17.1886C233.011 17.1886 235.993 14.2175 235.993 10.5414V8.32573C235.993 4.64966 233.011 1.67859 229.323 1.67859C225.634 1.67859 222.653 4.64966 222.653 8.32573V10.5414Z" stroke="#0A2E36" stroke-width="2" stroke-miterlimit="10"/>
<path d="M240.422 37.1132V103.534H218.206V34.8975H187.096C184.637 34.8975 182.65 32.9168 182.65 30.4661V26.0347H240.422C245.324 26.0347 249.316 29.9961 249.316 34.8975C249.316 40.5879 249.316 49.4172 249.316 65.9007C249.316 68.3515 247.328 70.3322 244.869 70.3322H240.422" stroke="#0A2E36" stroke-width="2" stroke-miterlimit="10"/>
<path d="M229.323 105.75V70.3153" stroke="#0A2E36" stroke-width="2" stroke-miterlimit="10"/>
<path d="M187.669 46.3287L182.953 51.0287" stroke="#0A2E36" stroke-width="2" stroke-miterlimit="10"/>
<path d="M177.563 99.2372C178.304 98.4986 178.725 97.4914 178.725 96.4507V92.4725L182.279 88.9643C182.532 88.7125 182.666 88.3768 182.666 88.0243C182.666 87.6718 182.532 87.3361 182.279 87.0843L179.483 84.2979C179.23 84.0629 178.893 83.9118 178.54 83.9118C178.186 83.9118 177.849 84.0461 177.597 84.2979L174.076 87.8397H170.084C169.04 87.8397 168.03 88.2593 167.288 88.9979L165.958 90.3239L165.015 92.1872L163.145 93.1104L161.275 94.9736L160.349 96.8368L158.479 97.76L153.089 103.131C152.062 104.155 152.062 105.834 153.089 106.858L159.625 113.371C160.652 114.395 162.336 114.395 163.364 113.371L168.754 107.999L169.68 106.136L171.55 105.213L173.419 103.35L174.346 101.486L176.215 100.546L177.563 99.2372Z" stroke="#0A2E36" stroke-width="2" stroke-miterlimit="10"/>
<path d="M176.232 85.7079L180.898 90.3576" stroke="#0A2E36" stroke-width="2" stroke-miterlimit="10"/>
<path d="M165.031 92.2039L167.373 94.5371" stroke="#0A2E36" stroke-width="2" stroke-miterlimit="10"/>
<path d="M168.299 95.4603L174.363 101.503" stroke="#0A2E36" stroke-width="2" stroke-miterlimit="10"/>
<path d="M160.366 96.8536L162.707 99.1868" stroke="#0A2E36" stroke-width="2" stroke-miterlimit="10"/>
<path d="M163.633 100.11L169.697 106.153" stroke="#0A2E36" stroke-width="2" stroke-miterlimit="10"/>
<path d="M63.0616 114.143V97.3908L49.5869 92.0026" stroke="#0A2E36" stroke-width="2" stroke-miterlimit="10"/>
<path d="M76.5362 92.0026L63.0615 97.3908" stroke="#0A2E36" stroke-width="2" stroke-miterlimit="10"/>
<path d="M69.7989 89.2832L56.3242 94.6714" stroke="#0A2E36" stroke-width="2" stroke-miterlimit="10"/>
<path d="M56.3242 94.6714V98.7" stroke="#0A2E36" stroke-width="2" stroke-miterlimit="10"/>
<path d="M76.5363 109.443L63.0616 114.143L49.5869 108.755V92.0026L63.0616 86.6144L76.5363 92.0026V109.443Z" stroke="#0A2E36" stroke-width="2" stroke-miterlimit="10"/>
<path d="M97.641 5.57294L92.369 14.6204" stroke="#0A2E36" stroke-width="2" stroke-miterlimit="10"/>
<path d="M104.429 1.67859C101.633 1.67859 99.0558 3.15573 97.6578 5.57287" stroke="#0A2E36" stroke-width="2" stroke-miterlimit="10"/>
<path d="M111.2 5.57287C109.802 3.15573 107.225 1.67859 104.429 1.67859" stroke="#0A2E36" stroke-width="2" stroke-miterlimit="10"/>
<path d="M117.432 16.2822L111.2 5.57294" stroke="#0A2E36" stroke-width="2" stroke-miterlimit="10"/>
<path d="M126.342 39.3961C127.74 36.979 127.74 34.0079 126.342 31.5908" stroke="#0A2E36" stroke-width="2" stroke-miterlimit="10"/>
<path d="M119.554 43.2903C122.35 43.2903 124.944 41.7964 126.342 39.3961" stroke="#0A2E36" stroke-width="2" stroke-miterlimit="10"/>
<path d="M107.124 43.2904H119.554" stroke="#0A2E36" stroke-width="2" stroke-miterlimit="10"/>
<path d="M82.4988 39.3961C83.8968 41.8132 86.4907 43.2903 89.2867 43.2903" stroke="#0A2E36" stroke-width="2" stroke-miterlimit="10"/>
<path d="M82.5157 31.5908C81.1177 34.0079 81.1177 36.979 82.5157 39.3961" stroke="#0A2E36" stroke-width="2" stroke-miterlimit="10"/>
<path d="M121.862 8.66138L117.432 16.2821H108.606" stroke="#0A2E36" stroke-width="2" stroke-miterlimit="10"/>
<path d="M93.1775 28.4853L88.7477 20.8646H79.9049" stroke="#0A2E36" stroke-width="2" stroke-miterlimit="10"/>
<path d="M111.537 50.9447L107.124 43.3072L111.554 35.6865" stroke="#0A2E36" stroke-width="2" stroke-miterlimit="10"/>
<path d="M126.342 31.5907L121.07 22.5264" stroke="#0A2E36" stroke-width="2" stroke-miterlimit="10"/>
<path d="M89.2866 43.2904H99.8979" stroke="#0A2E36" stroke-width="2" stroke-miterlimit="10"/>
<path d="M88.7477 20.8646L82.5156 31.5907" stroke="#0A2E36" stroke-width="2" stroke-miterlimit="10"/>
<path d="M20.9531 75.5357H31.0592" stroke="#0A2E36" stroke-width="2" stroke-miterlimit="10"/>
<path d="M41.1652 73.8572H81.5893" stroke="#0A2E36" stroke-width="2" stroke-miterlimit="10"/>
<path d="M95.0639 67.1429V60.4286L90.0109 57.0715H32.7434L27.6904 60.4286V67.1429H95.0639Z" stroke="#0A2E36" stroke-width="2" stroke-miterlimit="10"/>
<path d="M86.6423 119.179H34.4279L31.0592 67.1429" stroke="#0A2E36" stroke-width="2" stroke-miterlimit="10"/>
<path d="M91.6953 67.1429L91.0553 77.2143" stroke="#0A2E36" stroke-width="2" stroke-miterlimit="10"/>
<path d="M52.9556 57.0715V62.1072" stroke="#0A2E36" stroke-width="2" stroke-miterlimit="10"/>
<path d="M61.3772 57.0715V62.1072" stroke="#0A2E36" stroke-width="2" stroke-miterlimit="10"/>
<path d="M69.799 57.0715V62.1072" stroke="#0A2E36" stroke-width="2" stroke-miterlimit="10"/>
<path d="M47.9026 73.8572V82.25" stroke="#0A2E36" stroke-width="2" stroke-miterlimit="10"/>
<path d="M54.6399 73.8572V82.25" stroke="#0A2E36" stroke-width="2" stroke-miterlimit="10"/>
<path d="M61.3772 73.8572V82.25" stroke="#0A2E36" stroke-width="2" stroke-miterlimit="10"/>
<path d="M68.1146 73.8572V82.25" stroke="#0A2E36" stroke-width="2" stroke-miterlimit="10"/>
<path d="M74.8519 73.8572V82.25" stroke="#0A2E36" stroke-width="2" stroke-miterlimit="10"/>
<path d="M209.599 75.5357H199.493" stroke="#0A2E36" stroke-width="2" stroke-miterlimit="10"/>
<path d="M189.387 73.8572H148.963" stroke="#0A2E36" stroke-width="2" stroke-miterlimit="10"/>
<path d="M143.91 119.179H196.124L199.493 67.1429" stroke="#0A2E36" stroke-width="2" stroke-miterlimit="10"/>
<path d="M138.857 67.1429L139.514 77.2143" stroke="#0A2E36" stroke-width="2" stroke-miterlimit="10"/>
<path d="M182.65 73.8572V82.25" stroke="#0A2E36" stroke-width="2" stroke-miterlimit="10"/>
<path d="M175.912 73.8572V82.25" stroke="#0A2E36" stroke-width="2" stroke-miterlimit="10"/>
<path d="M169.175 73.8572V82.25" stroke="#0A2E36" stroke-width="2" stroke-miterlimit="10"/>
<path d="M162.438 73.8572V82.25" stroke="#0A2E36" stroke-width="2" stroke-miterlimit="10"/>
<path d="M155.7 73.8572V82.25" stroke="#0A2E36" stroke-width="2" stroke-miterlimit="10"/>
<path d="M197.809 33.5714V57.0714L202.862 60.4286V67.1429H135.488V60.4286L140.541 57.0714V11.75H197.809V26.8571" stroke="#0A2E36" stroke-width="2" stroke-miterlimit="10"/>
<path d="M143.91 60.4286H194.44" stroke="#0A2E36" stroke-width="2" stroke-miterlimit="10"/>
<path d="M104.732 131.365L111.992 124.147" stroke="#0A2E36" stroke-width="2" stroke-miterlimit="10"/>
<path d="M100.117 126.766L109.347 135.964" stroke="#0A2E36" stroke-width="2" stroke-miterlimit="10"/>
<path d="M117.92 116.913H123.849L117.499 126.699C112.918 126.161 109.347 122.284 109.347 117.567C109.347 113.841 111.587 110.635 114.788 109.191L121.879 105.75L123.883 107.748L117.92 116.913Z" stroke="#0A2E36" stroke-width="2" stroke-miterlimit="10"/>
<path d="M119.874 126.682C123.058 126.229 125.719 124.164 126.999 121.344L130.452 114.277L125.837 109.678" stroke="#0A2E36" stroke-width="2" stroke-miterlimit="10"/>
<path d="M117.92 116.913H123.849L117.499 126.699C112.918 126.161 109.347 122.284 109.347 117.567C109.347 113.841 111.587 110.635 114.788 109.191L121.879 105.75L123.883 107.748L117.92 116.913Z" stroke="#0A2E36" stroke-width="2" stroke-miterlimit="10"/>
<path d="M150.647 137.66H182.666" stroke="#0A2E36" stroke-width="2" stroke-miterlimit="10"/>
<path d="M180.898 129.25H241.854" stroke="#0A2E36" stroke-width="2" stroke-miterlimit="10"/>
<path d="M75.8288 127.79H16.3717" stroke="#0A2E36" stroke-width="2" stroke-miterlimit="10"/>
<path d="M6.33311 127.79H0" stroke="#0A2E36" stroke-width="2" stroke-miterlimit="10"/>
<path d="M161.848 129.25H166.194" stroke="#0A2E36" stroke-width="2" stroke-miterlimit="10"/>
<path d="M169.529 129.25H173.891" stroke="#0A2E36" stroke-width="2" stroke-miterlimit="10"/>
<path d="M162.707 17.1718H178.557" stroke="#0A2E36" stroke-width="2" stroke-miterlimit="10"/>
</svg>
