<svg width="244" height="164" viewBox="0 0 244 164" fill="none" xmlns="http://www.w3.org/2000/svg">
<g clip-path="url(#clip0)">
<path d="M92.6048 111.266C103.067 111.266 111.548 102.781 111.548 92.3134C111.548 81.846 103.067 73.3604 92.6048 73.3604C82.1426 73.3604 73.6614 81.846 73.6614 92.3134C73.6614 102.781 82.1426 111.266 92.6048 111.266Z" fill="#04D25A"/>
<path d="M143.352 137.168C147.477 137.168 150.821 133.822 150.821 129.695C150.821 125.568 147.477 122.222 143.352 122.222C139.226 122.222 135.882 125.568 135.882 129.695C135.882 133.822 139.226 137.168 143.352 137.168Z" stroke="#0A2E36" stroke-width="2" stroke-miterlimit="10"/>
<path d="M71.8869 137.168C76.0121 137.168 79.3562 133.822 79.3562 129.695C79.3562 125.568 76.0121 122.222 71.8869 122.222C67.7618 122.222 64.4177 125.568 64.4177 129.695C64.4177 133.822 67.7618 137.168 71.8869 137.168Z" stroke="#0A2E36" stroke-width="2" stroke-miterlimit="10"/>
<path d="M71.887 142.68C79.0546 142.68 84.8652 136.867 84.8652 129.695C84.8652 122.524 79.0546 116.711 71.887 116.711C64.7193 116.711 58.9088 122.524 58.9088 129.695C58.9088 136.867 64.7193 142.68 71.887 142.68Z" stroke="#0A2E36" stroke-width="2" stroke-miterlimit="10"/>
<path d="M143.351 142.68C150.519 142.68 156.33 136.867 156.33 129.695C156.33 122.524 150.519 116.711 143.351 116.711C136.184 116.711 130.373 122.524 130.373 129.695C130.373 136.867 136.184 142.68 143.351 142.68Z" stroke="#0A2E36" stroke-width="2" stroke-miterlimit="10"/>
<path d="M151.057 131.183H165.996V101.291L160.031 80.3769H136.119V116.237" stroke="#0A2E36" stroke-width="2" stroke-miterlimit="10"/>
<path d="M136.119 131.183H79.3562" stroke="#0A2E36" stroke-width="2" stroke-miterlimit="10"/>
<path d="M160.622 101.291H136.119" stroke="#0A2E36" stroke-width="2" stroke-miterlimit="10"/>
<path d="M163.005 116.237H157.039" stroke="#0A2E36" stroke-width="2" stroke-miterlimit="10"/>
<path d="M124.171 131.183V71.3992H64.4177" stroke="#0A2E36" stroke-width="2" stroke-miterlimit="10"/>
<path d="M28.5588 95.3229V122.222L37.5151 131.183H49.4794L64.4178 110.269V71.3992H46.4883L28.5588 95.3229Z" stroke="#0A2E36" stroke-width="2" stroke-miterlimit="10"/>
<path d="M37.515 110.269H124.171" stroke="#0A2E36" stroke-width="2" stroke-miterlimit="10"/>
<path d="M76.3651 103.675V110.269" stroke="#0A2E36" stroke-width="2" stroke-miterlimit="10"/>
<path d="M52.4535 92.3303V110.269" stroke="#0A2E36" stroke-width="2" stroke-miterlimit="10"/>
<path d="M88.3125 103.675V110.269" stroke="#0A2E36" stroke-width="2" stroke-miterlimit="10"/>
<path d="M100.26 103.675V110.269" stroke="#0A2E36" stroke-width="2" stroke-miterlimit="10"/>
<path d="M112.224 103.675V110.269" stroke="#0A2E36" stroke-width="2" stroke-miterlimit="10"/>
<path d="M94.2947 119.23V131.183" stroke="#0A2E36" stroke-width="2" stroke-miterlimit="10"/>
<path d="M112.224 119.23V131.183" stroke="#0A2E36" stroke-width="2" stroke-miterlimit="10"/>
<path d="M25.5677 143.153H244" stroke="#0A2E36" stroke-width="2" stroke-miterlimit="10"/>
<path d="M175.29 73.3097H244" stroke="#0A2E36" stroke-width="2" stroke-miterlimit="10"/>
<path d="M175.29 85.2631H199.185" stroke="#0A2E36" stroke-width="2" stroke-miterlimit="10"/>
<path d="M19.5856 75.3893H43.4972" stroke="#0A2E36" stroke-width="2" stroke-miterlimit="10"/>
<path d="M14.1949 82.5917H38.0897" stroke="#0A2E36" stroke-width="2" stroke-miterlimit="10"/>
<path d="M9.09155 89.4054H32.9863" stroke="#0A2E36" stroke-width="2" stroke-miterlimit="10"/>
<path d="M205.167 85.2631H220.105" stroke="#0A2E36" stroke-width="2" stroke-miterlimit="10"/>
<path d="M227.422 85.2631H234.892" stroke="#0A2E36" stroke-width="2" stroke-miterlimit="10"/>
<path d="M79.3562 62.4383V29.5538H136.119V62.4383" stroke="#0A2E36" stroke-width="2" stroke-miterlimit="10"/>
<path d="M170.018 62.4383V45.9876H226.78V54.1031" stroke="#0A2E36" stroke-width="2" stroke-miterlimit="10"/>
<path d="M101.984 29.8074V10.1443H158.746V27.0515" stroke="#0A2E36" stroke-width="2" stroke-miterlimit="10"/>
<path d="M136.119 53.4607H236.582" stroke="#0A2E36" stroke-width="2" stroke-miterlimit="10"/>
<path d="M25.5677 41.5072H79.3562" stroke="#0A2E36" stroke-width="2" stroke-miterlimit="10"/>
<path d="M88.3125 41.5072H127.163" stroke="#0A2E36" stroke-width="2" stroke-miterlimit="10"/>
<path d="M88.3125 53.4607H127.163" stroke="#0A2E36" stroke-width="2" stroke-miterlimit="10"/>
<path d="M55.4446 53.4607H70.383" stroke="#0A2E36" stroke-width="2" stroke-miterlimit="10"/>
<path d="M31.5498 53.4607H46.4882" stroke="#0A2E36" stroke-width="2" stroke-miterlimit="10"/>
<path d="M157.158 72.701H135.189" stroke="#0A2E36" stroke-width="2" stroke-miterlimit="10"/>
<path d="M140.259 84.5361V101.443" stroke="#0A2E36" stroke-width="2" stroke-miterlimit="10"/>
<path d="M104.772 153.856H180.816" stroke="#0A2E36" stroke-width="2" stroke-miterlimit="10"/>
<path d="M187.237 153.856H190.702" stroke="#0A2E36" stroke-width="2" stroke-miterlimit="10"/>
<path d="M98.0123 153.856H101.493" stroke="#0A2E36" stroke-width="2" stroke-miterlimit="10"/>
<path d="M90.8643 153.856H94.3454" stroke="#0A2E36" stroke-width="2" stroke-miterlimit="10"/>
<path d="M83.6992 153.856H87.1804" stroke="#0A2E36" stroke-width="2" stroke-miterlimit="10"/>
<path d="M113.221 162.309H0" stroke="#0A2E36" stroke-width="2" stroke-miterlimit="10"/>
<path d="M236.581 129.171L185.395 113.278L236.581 97.3856" stroke="#0A2E36" stroke-width="2" stroke-miterlimit="10"/>
<path d="M91.2528 42.268V45.6495" stroke="#0A2E36" stroke-width="2" stroke-miterlimit="10"/>
<path d="M98.0123 42.268V45.6495" stroke="#0A2E36" stroke-width="2" stroke-miterlimit="10"/>
<path d="M104.772 42.268V45.6495" stroke="#0A2E36" stroke-width="2" stroke-miterlimit="10"/>
<path d="M111.531 42.268V45.6495" stroke="#0A2E36" stroke-width="2" stroke-miterlimit="10"/>
<path d="M118.291 42.268V45.6495" stroke="#0A2E36" stroke-width="2" stroke-miterlimit="10"/>
<path d="M125.05 42.268V45.6495" stroke="#0A2E36" stroke-width="2" stroke-miterlimit="10"/>
<path d="M113.458 18.5979V21.9794" stroke="#0A2E36" stroke-width="2" stroke-miterlimit="10"/>
<path d="M120.217 18.5979V21.9794" stroke="#0A2E36" stroke-width="2" stroke-miterlimit="10"/>
<path d="M126.977 18.5979V21.9794" stroke="#0A2E36" stroke-width="2" stroke-miterlimit="10"/>
<path d="M133.736 18.5979V21.9794" stroke="#0A2E36" stroke-width="2" stroke-miterlimit="10"/>
<path d="M140.496 18.5979V21.9794" stroke="#0A2E36" stroke-width="2" stroke-miterlimit="10"/>
<path d="M147.255 18.5979V21.9794" stroke="#0A2E36" stroke-width="2" stroke-miterlimit="10"/>
<path d="M91.2528 54.1031V57.4845" stroke="#0A2E36" stroke-width="2" stroke-miterlimit="10"/>
<path d="M98.0123 54.1031V57.4845" stroke="#0A2E36" stroke-width="2" stroke-miterlimit="10"/>
<path d="M104.772 54.1031V57.4845" stroke="#0A2E36" stroke-width="2" stroke-miterlimit="10"/>
<path d="M111.531 54.1031V57.4845" stroke="#0A2E36" stroke-width="2" stroke-miterlimit="10"/>
<path d="M118.291 54.1031V57.4845" stroke="#0A2E36" stroke-width="2" stroke-miterlimit="10"/>
<path d="M125.05 54.1031V57.4845" stroke="#0A2E36" stroke-width="2" stroke-miterlimit="10"/>
<path d="M166.452 34.6598H195.18L187.575 27.0515H182.506H175.746L168.987 21.9794L162.227 27.0515H153.778L141.949 38.8866H180.816" stroke="#0A2E36" stroke-width="2" stroke-miterlimit="10"/>
<path d="M42.6354 22.3344H83.1922L76.9059 16.028H74.8105L69.217 11.8351L63.6235 16.028H48.9386" stroke="#0A2E36" stroke-width="2" stroke-miterlimit="10"/>
<path d="M180.681 17.3637C183.826 17.3637 186.376 14.8128 186.376 11.666C186.376 8.51922 183.826 5.96826 180.681 5.96826C177.536 5.96826 174.986 8.51922 174.986 11.666C174.986 14.8128 177.536 17.3637 180.681 17.3637Z" stroke="#0A2E36" stroke-width="2" stroke-miterlimit="10"/>
<path d="M180.681 3.87175V0" stroke="#0A2E36" stroke-width="2" stroke-miterlimit="10"/>
<path d="M175.104 6.30647L172.367 3.5675" stroke="#0A2E36" stroke-width="2" stroke-miterlimit="10"/>
<path d="M172.857 11.9704H168.987" stroke="#0A2E36" stroke-width="2" stroke-miterlimit="10"/>
<path d="M175.29 17.5496L172.552 20.2886" stroke="#0A2E36" stroke-width="2" stroke-miterlimit="10"/>
<path d="M180.951 19.7983V23.6701" stroke="#0A2E36" stroke-width="2" stroke-miterlimit="10"/>
<path d="M186.528 17.3637L189.265 20.1027" stroke="#0A2E36" stroke-width="2" stroke-miterlimit="10"/>
<path d="M188.775 11.6997H192.645" stroke="#0A2E36" stroke-width="2" stroke-miterlimit="10"/>
<path d="M186.342 6.12041L189.079 3.38144" stroke="#0A2E36" stroke-width="2" stroke-miterlimit="10"/>
<path d="M165.996 101.291L174.056 103.134V131.183H165.996" stroke="#0A2E36" stroke-width="2" stroke-miterlimit="10"/>
<path d="M174.056 105.788C174.056 106.194 169.071 110.776 169.071 110.776L174.225 115.933" stroke="#0A2E36" stroke-width="2" stroke-miterlimit="10"/>
<path d="M154.538 101.9V96.5909C154.538 93.9027 152.358 91.7386 149.689 91.7386H144.382" stroke="#0A2E36" stroke-width="2" stroke-miterlimit="10"/>
<path d="M45.6772 105.805C46.7598 105.805 47.6374 104.927 47.6374 103.844C47.6374 102.761 46.7598 101.883 45.6772 101.883C44.5946 101.883 43.7169 102.761 43.7169 103.844C43.7169 104.927 44.5946 105.805 45.6772 105.805Z" stroke="#0A2E36" stroke-width="2" stroke-miterlimit="10"/>
<path d="M130.356 79.278V116.711" stroke="#0A2E36" stroke-width="2" stroke-miterlimit="10"/>
<path d="M90.0699 81.0701L87.4844 85.5167" stroke="#0A2E36" stroke-width="2" stroke-miterlimit="10"/>
<path d="M93.3821 79.1595C92.0133 79.1595 90.7459 79.8866 90.0699 81.0701" stroke="#0A2E36" stroke-width="2" stroke-miterlimit="10"/>
<path d="M96.7111 81.0701C96.0182 79.8866 94.7677 79.1595 93.3989 79.1595" stroke="#0A2E36" stroke-width="2" stroke-miterlimit="10"/>
<path d="M99.753 86.3282L96.7112 81.0701" stroke="#0A2E36" stroke-width="2" stroke-miterlimit="10"/>
<path d="M104.113 97.6898C104.806 96.5063 104.789 95.0354 104.113 93.8519" stroke="#0A2E36" stroke-width="2" stroke-miterlimit="10"/>
<path d="M100.801 99.6003C102.169 99.6003 103.437 98.8733 104.13 97.6898" stroke="#0A2E36" stroke-width="2" stroke-miterlimit="10"/>
<path d="M94.717 99.6004H100.801" stroke="#0A2E36" stroke-width="2" stroke-miterlimit="10"/>
<path d="M82.6683 97.6898C83.3443 98.8733 84.6117 99.6003 85.9974 99.6003" stroke="#0A2E36" stroke-width="2" stroke-miterlimit="10"/>
<path d="M82.6683 93.8519C81.9755 95.0354 81.9755 96.5063 82.6683 97.6898" stroke="#0A2E36" stroke-width="2" stroke-miterlimit="10"/>
<path d="M101.916 82.5917L99.7529 86.3282H95.4269" stroke="#0A2E36" stroke-width="2" stroke-miterlimit="10"/>
<path d="M87.89 92.3302L85.7101 88.5938H81.384" stroke="#0A2E36" stroke-width="2" stroke-miterlimit="10"/>
<path d="M96.8632 103.354L94.717 99.6173L96.8801 95.8639" stroke="#0A2E36" stroke-width="2" stroke-miterlimit="10"/>
<path d="M104.113 93.852L101.527 89.4054" stroke="#0A2E36" stroke-width="2" stroke-miterlimit="10"/>
<path d="M85.9805 99.6004H91.1684" stroke="#0A2E36" stroke-width="2" stroke-miterlimit="10"/>
<path d="M85.7101 88.5938L82.6683 93.8519" stroke="#0A2E36" stroke-width="2" stroke-miterlimit="10"/>
</g>
<defs>
<clipPath id="clip0">
<rect width="244" height="164" fill="white"/>
</clipPath>
</defs>
</svg>
