<svg width="209" height="164" viewBox="0 0 209 164" fill="none" xmlns="http://www.w3.org/2000/svg">
<path d="M119.257 124.56C129.338 124.56 137.51 116.441 137.51 106.426C137.51 96.4101 129.338 88.2909 119.257 88.2909C109.177 88.2909 101.005 96.4101 101.005 106.426C101.005 116.441 109.177 124.56 119.257 124.56Z" fill="#04D25A"/>
<path d="M55.7367 151.099C61.2106 151.099 65.6481 146.691 65.6481 141.252C65.6481 135.813 61.2106 131.405 55.7367 131.405C50.2628 131.405 45.8253 135.813 45.8253 141.252C45.8253 146.691 50.2628 151.099 55.7367 151.099Z" fill="#04D25A"/>
<path d="M39.8312 125.885C46.8904 125.885 52.613 120.2 52.613 113.186C52.613 106.173 46.8904 100.487 39.8312 100.487C32.772 100.487 27.0494 106.173 27.0494 113.186C27.0494 120.2 32.772 125.885 39.8312 125.885Z" fill="#04D25A"/>
<path d="M188.502 135.347C192.502 135.347 195.745 132.125 195.745 128.15C195.745 124.175 192.502 120.953 188.502 120.953C184.501 120.953 181.258 124.175 181.258 128.15C181.258 132.125 184.501 135.347 188.502 135.347Z" fill="#04D25A"/>
<path d="M159.426 93.29L136.986 56.0814" stroke="#0A2E36" stroke-width="2" stroke-miterlimit="10"/>
<path d="M162.027 40.1443L180.617 70.9111C181.951 73.1255 182.727 75.7258 182.727 78.5105C182.727 86.6636 176.058 93.29 167.852 93.29" stroke="#0A2E36" stroke-width="2" stroke-miterlimit="10"/>
<path d="M63.9765 115.048L47.784 84.835C45.3019 80.3727 45.2175 74.7528 48.0373 70.0556L57.2226 54.8567L47.0242 48.7671L48.5607 46.234L79.1728 47.2741L94.4536 73.6288L92.9171 76.162L82.7186 70.0724L64.348 100.47" stroke="#0A2E36" stroke-width="2" stroke-miterlimit="10"/>
<path d="M90.722 93.2901H68.8731" stroke="#0A2E36" stroke-width="2" stroke-miterlimit="10"/>
<path d="M87.7335 122.832L77.0623 122.866C74.462 122.866 71.8111 122.178 69.4303 120.752C62.3894 116.541 60.1099 107.466 64.348 100.47" stroke="#0A2E36" stroke-width="2" stroke-miterlimit="10"/>
<path d="M111.71 16.0544L92.3092 52.2062" stroke="#0A2E36" stroke-width="2" stroke-miterlimit="10"/>
<path d="M66.2222 37.9636L81.4861 9.51184C82.7018 7.23033 84.5422 5.25079 86.9568 3.80807C93.9977 -0.385873 103.132 1.89563 107.354 8.85758" stroke="#0A2E36" stroke-width="2" stroke-miterlimit="10"/>
<path d="M94.5886 1.69431L129.034 1.67753C134.167 1.59365 139.198 4.16034 142.035 8.84079L151.22 24.0396L161.571 17.95L163.107 20.4832L147.826 46.8379L117.214 47.878L115.678 45.3449L125.724 39.2553L107.37 8.87434" stroke="#0A2E36" stroke-width="2" stroke-miterlimit="10"/>
<path d="M37.9233 162.322H79.4936" stroke="#0A2E36" stroke-width="2" stroke-miterlimit="10"/>
<path d="M134.15 162.322H175.72" stroke="#0A2E36" stroke-width="2" stroke-miterlimit="10"/>
<path d="M128.595 162.322H100.887" stroke="#0A2E36" stroke-width="2" stroke-miterlimit="10"/>
<path d="M181.258 162.322H189.566" stroke="#0A2E36" stroke-width="2" stroke-miterlimit="10"/>
<path d="M85.0318 162.322H93.3391" stroke="#0A2E36" stroke-width="2" stroke-miterlimit="10"/>
<path d="M200.659 162.322H206.197" stroke="#0A2E36" stroke-width="2" stroke-miterlimit="10"/>
<path d="M170.232 152.727H111.473" stroke="#0A2E36" stroke-width="2" stroke-miterlimit="10"/>
<path d="M100.144 152.727H92.3936" stroke="#0A2E36" stroke-width="2" stroke-miterlimit="10"/>
<path d="M107.944 152.727H104.145" stroke="#0A2E36" stroke-width="2" stroke-miterlimit="10"/>
<path d="M23.7569 108.791H27.9612" stroke="#0A2E36" stroke-width="2" stroke-miterlimit="10"/>
<path d="M23.7569 109.831C23.7569 104.58 13.9468 99.6313 1.68848 104.53V104.614V111.475C1.68848 117.481 6.56818 122.363 12.5961 122.363C20.1942 122.363 23.7569 116.843 23.7569 109.831Z" stroke="#0A2E36" stroke-width="2" stroke-miterlimit="10"/>
<path d="M2.16125 100.118L5.20052 96.3265C6.29803 94.9677 7.95274 94.1792 9.70876 94.1792C11.2959 94.1792 12.8156 94.7999 13.9468 95.9239L14.3014 96.2762" stroke="#0A2E36" stroke-width="2" stroke-miterlimit="10"/>
<path d="M27.9612 109.831C27.9612 104.58 37.7713 99.6313 50.0297 104.53V104.614V111.475C50.0297 117.481 45.15 122.363 39.1221 122.363C31.5239 122.363 27.9612 116.843 27.9612 109.831Z" stroke="#0A2E36" stroke-width="2" stroke-miterlimit="10"/>
<path d="M37.4167 96.2594L37.7713 95.9071C38.9026 94.7831 40.4222 94.1624 42.0093 94.1624C43.7654 94.1624 45.4201 94.9509 46.5176 96.3097L49.5569 100.101" stroke="#0A2E36" stroke-width="2" stroke-miterlimit="10"/>
<path d="M42.6679 108.791L35.2048 121.792" stroke="#0A2E36" stroke-width="2" stroke-miterlimit="10"/>
<path d="M42.9718 116.894L39.8312 122.346" stroke="#0A2E36" stroke-width="2" stroke-miterlimit="10"/>
<path d="M45.8253 111.928L44.0018 115.065" stroke="#0A2E36" stroke-width="2" stroke-miterlimit="10"/>
<path d="M16.3951 108.791L8.94891 121.742" stroke="#0A2E36" stroke-width="2" stroke-miterlimit="10"/>
<path d="M10.5192 102.55L6.93964 108.791" stroke="#0A2E36" stroke-width="2" stroke-miterlimit="10"/>
<path d="M37.7881 102.668L34.2592 108.791" stroke="#0A2E36" stroke-width="2" stroke-miterlimit="10"/>
<path d="M17.0705 116.256L13.5754 122.312" stroke="#0A2E36" stroke-width="2" stroke-miterlimit="10"/>
<path d="M19.5526 111.928L18.1005 114.444" stroke="#0A2E36" stroke-width="2" stroke-miterlimit="10"/>
<path d="M192.909 135.833H197.653C199.477 135.833 201.233 135.263 202.702 134.206C203.175 133.854 203.749 133.686 204.323 133.686C204.644 133.686 204.964 133.736 205.268 133.854C206.13 134.173 206.771 134.911 206.974 135.8C207.176 136.689 207.295 137.612 207.295 138.568C207.295 145.345 201.773 150.831 194.952 150.831H182.947C178.962 150.831 175.754 147.627 175.754 143.684C175.754 141.437 176.801 139.423 178.455 138.098L182.474 134.894C183.065 134.424 183.166 133.585 182.71 132.998C181.799 131.807 181.241 130.314 181.241 128.67C181.241 124.711 184.466 121.524 188.434 121.524C192.402 121.524 195.627 124.728 195.627 128.67C195.627 130.348 195.053 131.874 194.091 133.099" stroke="#0A2E36" stroke-width="2" stroke-miterlimit="10"/>
<path d="M184.669 126.976L185.361 125.6" stroke="#0A2E36" stroke-width="2" stroke-miterlimit="10"/>
<path d="M184.669 146.05H189.177C193.196 146.05 196.944 143.986 199.072 140.598" stroke="#0A2E36" stroke-width="2" stroke-miterlimit="10"/>
<path d="M179.198 126.976H176.193C175.956 126.976 175.771 127.16 175.771 127.395C175.771 128.2 176.767 130.281 179.587 131.304" stroke="#0A2E36" stroke-width="2" stroke-miterlimit="10"/>
<path d="M81.6887 144.507L80.5068 132.747L80.0509 128.301L77.8221 128.519C76.1842 128.687 74.5464 129.073 72.993 129.626C67.2522 131.757 60.8529 131.17 55.6017 128.016L51.8701 125.768L43.0563 129.693C34.8165 133.351 25.9351 135.313 16.9186 135.448C16.0744 135.448 15.2639 135.632 14.5041 135.917" stroke="#0A2E36" stroke-width="2" stroke-miterlimit="10"/>
<mask id="mask0" mask-type="alpha" maskUnits="userSpaceOnUse" x="10" y="125" width="73" height="30">
<path d="M78.261 154.22C79.3923 154.203 80.4729 153.716 81.2328 152.878C81.9926 152.039 82.3472 150.915 82.2459 149.791L80.0677 128.301L77.8389 128.519C76.1842 128.687 74.5633 129.056 73.0099 129.626C67.269 131.757 60.8528 131.153 55.6185 128.016L51.887 125.768L43.0562 129.694C34.8333 133.351 25.9351 135.313 16.9355 135.448C14.5716 135.481 12.3934 136.723 11.1777 138.736C9.5568 141.403 10.4179 144.876 13.1026 146.486C22.3386 152.022 32.9422 154.891 43.7316 154.723L78.261 154.22Z" fill="black"/>
</mask>
<g mask="url(#mask0)">
<path d="M25.8506 128.083L29.903 140.296M41.2834 124.308L45.3357 136.521L41.2834 124.308ZM33.567 126.187L37.6193 138.4L33.567 126.187Z" stroke="#0A2E36" stroke-width="2" stroke-miterlimit="10"/>
<path d="M81.6887 144.507L80.5067 132.747C76.0492 134.894 72.1319 138.3 69.3797 142.829C69.0082 143.433 68.6705 144.054 68.3666 144.674" stroke="#0A2E36" stroke-width="2" stroke-miterlimit="10"/>
<path d="M15.9899 141.722C24.331 146.721 33.8878 149.304 43.6303 149.153L82.1277 148.684L82.2459 149.791C82.3641 150.915 81.9926 152.022 81.2328 152.878C80.473 153.716 79.4092 154.203 78.2611 154.22L43.6979 154.74C32.9085 154.908 22.3048 152.039 13.0689 146.503C10.4011 144.909 9.53994 141.47 11.1102 138.803L15.9899 141.722Z" stroke="#0A2E36" stroke-width="2" stroke-miterlimit="10"/>
</g>
<path d="M149.127 141.252H164.779L167.193 110.116" stroke="#0A2E36" stroke-width="2" stroke-miterlimit="10"/>
<path d="M151.119 99.2791H170.233V106.04H150.123" stroke="#0A2E36" stroke-width="2" stroke-miterlimit="10"/>
<path d="M140.245 80.6412C140.245 79.1481 139.029 77.9402 137.527 77.9402H130.705C129.202 77.9402 127.987 79.1481 127.987 80.6412V86.0597H140.262V80.6412H140.245Z" stroke="#0A2E36" stroke-width="2" stroke-miterlimit="10"/>
<path d="M134.116 132.092C136.373 132.092 138.202 130.275 138.202 128.033C138.202 125.791 136.373 123.973 134.116 123.973C131.859 123.973 130.03 125.791 130.03 128.033C130.03 130.275 131.859 132.092 134.116 132.092Z" stroke="#0A2E36" stroke-width="2" stroke-miterlimit="10"/>
<path d="M163.411 93.8605H167.514V99.2791H159.325L163.411 93.8605Z" stroke="#0A2E36" stroke-width="2" stroke-miterlimit="10"/>
<path d="M112.25 106.375H87.7334V132.109H112.25V106.375Z" stroke="#0A2E36" stroke-width="2" stroke-miterlimit="10"/>
<path d="M120.439 84.7009L112.267 98.239V106.358H87.7334V132.092H112.25V137.511C112.25 139.759 114.091 141.571 116.336 141.571H91.8195C89.5738 141.571 87.7334 139.759 87.7334 137.511V98.2558L95.9056 84.7177V77.9403C95.9056 77.2022 96.5135 76.5815 97.2733 76.5815H121.807C121.064 76.5815 120.439 77.1854 120.439 77.9403V84.7009Z" stroke="#0A2E36" stroke-width="2" stroke-miterlimit="10"/>
<path d="M127.244 91.4448L123.124 96.2259C121.858 97.6854 121.148 99.5643 121.148 101.51V103.658C121.148 104.647 121.469 105.587 122.06 106.358C122.364 106.778 122.736 107.147 123.191 107.449C124.475 108.288 125.234 109.714 125.234 111.24V111.777C125.234 113.287 124.475 114.713 123.191 115.568C121.925 116.407 121.148 117.833 121.148 119.36V119.897H147.05V119.36C147.05 117.833 146.29 116.407 145.007 115.568C143.74 114.713 142.964 113.287 142.964 111.777V111.24C142.964 109.714 143.74 108.288 145.007 107.449C146.29 106.593 147.05 105.167 147.05 103.658V101.51C147.05 99.5811 146.357 97.6854 145.091 96.2259L140.194 90.5557C139.35 89.5659 138.877 88.3245 138.877 87.016V86.0598H129.338V87.016C129.338 88.3245 128.882 89.5659 128.02 90.5557L127.244 91.4448Z" stroke="#0A2E36" stroke-width="2" stroke-miterlimit="10"/>
<path d="M112.284 132.109V106.375H122.077C122.381 106.795 122.752 107.164 123.208 107.466C124.492 108.304 125.251 109.73 125.251 111.257V111.794C125.251 113.304 124.492 114.73 123.208 115.585C121.942 116.424 121.165 117.85 121.165 119.376V119.913V136.169V136.957C121.165 138.82 122.026 140.497 123.377 141.588H116.37C114.124 141.588 112.284 139.776 112.284 137.528V132.109Z" stroke="#0A2E36" stroke-width="2" stroke-miterlimit="10"/>
<path d="M112.284 106.375H112.267V132.109H112.284V106.375Z" stroke="#0A2E36" stroke-width="2" stroke-miterlimit="10"/>
<path d="M120.439 84.7009V77.9235C120.439 77.1854 121.047 76.5647 121.807 76.5647C122.55 76.5647 123.175 77.1686 123.175 77.9235V84.7009L127.244 91.4448L123.124 96.2259C121.858 97.6854 121.148 99.5643 121.148 101.51V103.658C121.148 104.647 121.469 105.587 122.06 106.358H112.267H112.25V98.239L120.439 84.7009Z" stroke="#0A2E36" stroke-width="2" stroke-miterlimit="10"/>
<path d="M123.36 141.588C122.009 140.497 121.148 138.82 121.148 136.957V136.169H147.05V136.957C147.05 140.262 144.365 142.946 141.039 142.946H127.176C125.724 142.946 124.407 142.426 123.36 141.588Z" stroke="#0A2E36" stroke-width="2" stroke-miterlimit="10"/>
<path d="M147.05 119.913H121.148V136.169H147.05V119.913Z" stroke="#0A2E36" stroke-width="2" stroke-miterlimit="10"/>
<path d="M123.36 141.588H123.698" stroke="#0A2E36" stroke-width="2" stroke-miterlimit="10"/>
<path d="M120.439 84.7009H120.456" stroke="#0A2E36" stroke-width="2" stroke-miterlimit="10"/>
<path d="M95.9225 84.7009H120.439" stroke="#0A2E36" stroke-width="2" stroke-miterlimit="10"/>
<path d="M112.284 132.109H118.295" stroke="#0A2E36" stroke-width="2" stroke-miterlimit="10"/>
<path d="M112.267 98.2558H112.284" stroke="#0A2E36" stroke-width="2" stroke-miterlimit="10"/>
<path d="M87.7334 98.2558H112.267" stroke="#0A2E36" stroke-width="2" stroke-miterlimit="10"/>
</svg>
