<svg width="164" height="29" viewBox="0 0 164 29" fill="none" xmlns="http://www.w3.org/2000/svg">
<path d="M78.6135 4.95678L73.9824 0V1.65226H61.3626C60.4942 1.65226 60.0311 1.99411 59.7996 2.4499C59.5101 2.84872 56.4999 8.54617 55.7473 9.97053C55.7473 9.97053 55.7473 9.97053 55.8052 9.97053C56.9051 8.48919 58.5839 8.20432 60.7837 8.20432H73.9824V9.85658L78.6135 4.95678Z" fill="#0A2E36"/>
<path d="M90.7122 16.8644L63.4464 9.11591H60.6677C58.2943 9.11591 56.6734 9.40078 55.5735 11.11C55.6314 11.6798 56.7892 12.3634 58.8732 13.1041C60.031 13.5029 79.8869 19.8271 80.2922 19.9411C80.6974 20.055 80.8711 20.3968 80.5816 20.6817C80.2922 20.9666 76.9346 24.556 76.9346 24.556C76.9346 24.556 78.5555 26.664 79.3659 27.4047C80.1764 28.1454 81.0447 28.2593 81.2763 28.2593H81.3342C82.0288 28.2593 82.492 27.9175 82.492 27.9175L91.1753 18.6306C91.87 18.0039 91.5805 17.0354 90.7122 16.8644Z" fill="#0A2E36"/>
<path d="M80.2344 28.829C79.8871 28.7721 79.2503 28.5442 78.7293 27.9744C77.9189 27.1198 70.3354 19.0294 70.3354 19.0294L72.0721 17.833L62.8677 15.9528L63.4466 23.9862L65.1832 22.7898C65.1832 22.7898 70.3354 28.2593 70.5669 28.4872C70.7985 28.7151 71.03 29 71.7826 29L80.2344 28.829Z" fill="#0A2E36"/>
<path d="M95.9223 9.05896C95.2855 7.8625 92.8542 3.24757 92.6226 2.84875C92.6226 2.84875 92.1016 1.65228 90.9439 1.65228H76.7031L79.7713 4.9568L76.7031 8.20434H90.6544C92.7384 8.20434 95.1119 8.26132 95.9223 9.05896Z" fill="#0A2E36"/>
<path d="M95.8645 9.91358C95.4013 9.05896 92.7963 9.11593 89.7282 9.11593L88.2231 10.5973L86.3127 9.05896L87.8758 15.7819H94.9961L93.4331 14.5855C93.4331 14.5855 95.2277 12.7053 95.5171 12.4205C95.8066 12.1356 96.5591 11.11 95.8645 9.91358Z" fill="#0A2E36"/>
<path d="M5.67314 8.66012C7.58348 8.66012 9.55171 9.62869 11.1147 10.8821L8.97282 12.8762C7.93082 12.2495 6.4257 11.7367 5.73103 11.7367H5.49947C4.92058 11.7367 3.58913 11.8507 3.58913 12.8193C3.58913 13.5599 4.68902 13.6739 5.55736 13.7878L6.4257 13.8448C9.20438 14.1297 11.4621 15.2122 11.4621 18.1179C11.4621 20.7387 9.20438 22.334 6.02047 22.391H5.90469C3.1839 22.391 1.15778 21.0806 0 19.7701L2.1419 17.833C2.72079 18.4028 4.05224 19.3143 5.90469 19.3143H6.02047C7.40981 19.3143 8.16237 18.8585 8.16237 18.1179C8.16237 17.1493 7.06248 16.9784 5.96258 16.8644L5.09425 16.7505C2.54712 16.4656 0.289446 15.4401 0.289446 12.8762C0.289446 10.2554 2.54712 8.66012 5.49947 8.60315H5.67314V8.66012Z" fill="#0A2E36"/>
<path d="M27.3236 15.4971C27.3236 19.3143 24.1976 22.391 20.3769 22.391C16.5562 22.391 13.4302 19.3143 13.4302 15.4971C13.4302 11.6798 16.4983 8.60315 20.3769 8.60315C24.1976 8.66012 27.3236 11.7367 27.3236 15.4971ZM16.7299 15.4971C16.7299 17.833 18.3508 19.2574 20.319 19.2574C22.3451 19.2574 23.966 17.833 23.966 15.4971C23.966 13.1611 22.3451 11.6798 20.319 11.6798C18.3508 11.7367 16.7299 13.2181 16.7299 15.4971Z" fill="#0A2E36"/>
<path d="M35.023 8.77411C39.0174 8.77411 40.9277 11.224 40.9277 14.0158C40.9277 15.8959 40.0015 17.4342 38.2648 18.1749C38.7858 18.5737 39.3068 19.3144 40.1752 20.6248L41.2172 22.2771H37.5123L36.7597 21.1376C35.7756 19.5993 35.6019 19.3144 34.3284 19.2574H33.5758V22.2771H30.2761V8.77411H35.023ZM33.5758 16.1238H35.3704C36.7597 16.1238 37.8596 15.4971 37.8596 14.0158C37.8596 12.6484 36.8176 11.8507 35.3704 11.8507H33.5758V16.1238Z" fill="#0A2E36"/>
<path d="M49.6688 22.2771H46.3691V11.8507H42.8958V8.77411H53.1421V11.8507H49.6688V22.2771Z" fill="#0A2E36"/>
<path d="M102.464 8.6601C104.432 8.6601 106.169 9.45774 107.211 10.9391L106.632 11.5088C105.706 10.2554 104.143 9.57169 102.522 9.57169H102.29C100.553 9.57169 98.701 10.5403 98.701 12.3065C98.701 13.6169 99.5694 14.3575 101.943 14.6424L103.622 14.8703C106.342 15.2122 107.79 16.2947 107.79 18.5737C107.79 20.9096 105.532 22.4479 102.927 22.4479H102.811C100.09 22.4479 98.2379 21.2515 97.4854 19.4283L98.0642 18.8585C98.701 20.5108 100.322 21.5933 102.811 21.5933H102.927C105.011 21.5933 106.863 20.4538 106.863 18.6306C106.863 16.9214 105.821 16.0668 103.564 15.7819L101.885 15.554C99.1063 15.2122 97.8327 14.1866 97.8327 12.3634C97.8327 10.1414 100.032 8.71707 102.348 8.71707H102.464V8.6601Z" fill="#0A2E36"/>
<path d="M122.956 22.2771V10.6543L117.399 17.7191L111.842 10.6543V22.2771H110.916V8.77411H111.379L117.399 16.4087L123.42 8.77411H123.883V22.2771H122.956Z" fill="#0A2E36"/>
<path d="M128.109 22.2771H127.125L132.798 8.77411H133.261L138.934 22.2771H137.95L136.213 18.1179H129.903L128.109 22.2771ZM130.193 17.2633H135.808L132.971 10.5403L130.193 17.2633Z" fill="#0A2E36"/>
<path d="M146.344 8.77411C149.643 8.77411 152.191 10.4264 152.191 13.503C152.191 15.8959 150.628 17.3203 148.428 17.89C149.238 18.1749 149.933 18.7446 150.801 20.0551L152.248 22.2771H151.206L149.991 20.3969C148.833 18.5737 148.023 18.2888 146.517 18.2888H143.102V22.2771H142.176V8.77411H146.344ZM143.044 17.3773H146.402C149.065 17.3773 151.322 16.2378 151.322 13.503C151.322 10.8252 149.065 9.62873 146.402 9.62873H143.044V17.3773V17.3773Z" fill="#0A2E36"/>
<path d="M159.543 22.2771H158.616V9.62873H154.159V8.77411H164V9.62873H159.543V22.2771Z" fill="#0A2E36"/>
</svg>
