<svg width="164" height="29" viewBox="0 0 164 29" fill="none" xmlns="http://www.w3.org/2000/svg">
<path d="M78.6135 4.95678L73.9823 0V1.65226H61.3625C60.4942 1.65226 60.0311 1.99411 59.7995 2.4499C59.5101 2.84872 56.4998 8.54617 55.7473 9.97053C55.7473 9.97053 55.7473 9.97053 55.8051 9.97053C56.905 8.48919 58.5838 8.20432 60.7836 8.20432H73.9823V9.85658L78.6135 4.95678Z" fill="white"/>
<path d="M90.7123 16.8645L63.4465 9.11597H60.6678C58.2944 9.11597 56.6735 9.40084 55.5736 11.1101C55.6315 11.6798 56.7893 12.3635 58.8733 13.1042C60.0311 13.503 79.887 19.8272 80.2923 19.9411C80.6975 20.0551 80.8712 20.3969 80.5817 20.6818C80.2923 20.9667 76.9347 24.556 76.9347 24.556C76.9347 24.556 78.5556 26.6641 79.366 27.4048C80.1765 28.1454 81.0448 28.2594 81.2764 28.2594H81.3343C82.0289 28.2594 82.4921 27.9175 82.4921 27.9175L91.1754 18.6307C91.8701 18.004 91.5807 17.0354 90.7123 16.8645Z" fill="white"/>
<path d="M80.2344 28.8291C79.887 28.7721 79.2502 28.5442 78.7292 27.9745C77.9188 27.1199 70.3353 19.0295 70.3353 19.0295L72.072 17.833L62.8676 15.9529L63.4465 23.9863L65.1832 22.7898C65.1832 22.7898 70.3353 28.2594 70.5669 28.4873C70.7984 28.7152 71.03 29 71.7825 29L80.2344 28.8291Z" fill="white"/>
<path d="M95.9223 9.0589C95.2856 7.86244 92.8542 3.24751 92.6227 2.84869C92.6227 2.84869 92.1017 1.65222 90.9439 1.65222H76.7031L79.7713 4.95674L76.7031 8.20428H90.6544C92.7384 8.20428 95.1119 8.26126 95.9223 9.0589Z" fill="white"/>
<path d="M95.8645 9.91358C95.4013 9.05896 92.7963 9.11593 89.7282 9.11593L88.2231 10.5973L86.3127 9.05896L87.8757 15.7819H94.9961L93.4331 14.5855C93.4331 14.5855 95.2277 12.7053 95.5171 12.4205C95.8066 12.1356 96.5591 11.11 95.8645 9.91358Z" fill="white"/>
<path d="M5.67314 8.66012C7.58348 8.66012 9.55171 9.62869 11.1147 10.8821L8.97282 12.8762C7.93082 12.2495 6.4257 11.7367 5.73103 11.7367H5.49947C4.92058 11.7367 3.58913 11.8507 3.58913 12.8193C3.58913 13.5599 4.68902 13.6739 5.55736 13.7878L6.4257 13.8448C9.20438 14.1297 11.4621 15.2122 11.4621 18.1179C11.4621 20.7387 9.20438 22.334 6.02047 22.391H5.90469C3.1839 22.391 1.15778 21.0806 0 19.7701L2.1419 17.833C2.72079 18.4028 4.05224 19.3143 5.90469 19.3143H6.02047C7.40981 19.3143 8.16237 18.8585 8.16237 18.1179C8.16237 17.1493 7.06248 16.9784 5.96258 16.8644L5.09425 16.7505C2.54712 16.4656 0.289446 15.4401 0.289446 12.8762C0.289446 10.2554 2.54712 8.66012 5.49947 8.60315H5.67314V8.66012Z" fill="white"/>
<path d="M27.3237 15.4971C27.3237 19.3143 24.1977 22.391 20.377 22.391C16.5563 22.391 13.4303 19.3143 13.4303 15.4971C13.4303 11.6798 16.4984 8.60315 20.377 8.60315C24.1977 8.66012 27.3237 11.7367 27.3237 15.4971ZM16.73 15.4971C16.73 17.833 18.3509 19.2574 20.3191 19.2574C22.3452 19.2574 23.9661 17.833 23.9661 15.4971C23.9661 13.1611 22.3452 11.6798 20.3191 11.6798C18.3509 11.7367 16.73 13.2181 16.73 15.4971Z" fill="white"/>
<path d="M35.0229 8.77405C39.0173 8.77405 40.9276 11.2239 40.9276 14.0157C40.9276 15.8959 40.0014 17.4342 38.2647 18.1748C38.7857 18.5737 39.3067 19.3143 40.1751 20.6247L41.2171 22.277H37.5122L36.7596 21.1375C35.7755 19.5992 35.6018 19.3143 34.3283 19.2573H33.5757V22.277H30.276V8.77405H35.0229ZM33.5757 16.1238H35.3703C36.7596 16.1238 37.8595 15.497 37.8595 14.0157C37.8595 12.6483 36.8175 11.8507 35.3703 11.8507H33.5757V16.1238Z" fill="white"/>
<path d="M49.6689 22.277H46.3692V11.8507H42.8959V8.77405H53.1422V11.8507H49.6689V22.277Z" fill="white"/>
<path d="M102.464 8.66003C104.432 8.66003 106.169 9.45768 107.211 10.939L106.632 11.5088C105.706 10.2553 104.143 9.57163 102.522 9.57163H102.29C100.554 9.57163 98.701 10.5402 98.701 12.3064C98.701 13.6168 99.5694 14.3575 101.943 14.6424L103.622 14.8703C106.342 15.2121 107.79 16.2946 107.79 18.5736C107.79 20.9095 105.532 22.4479 102.927 22.4479H102.811C100.09 22.4479 98.2379 21.2514 97.4854 19.4282L98.0643 18.8585C98.701 20.5107 100.322 21.5932 102.811 21.5932H102.927C105.011 21.5932 106.863 20.4537 106.863 18.6306C106.863 16.9213 105.821 16.0667 103.564 15.7818L101.885 15.5539C99.1063 15.2121 97.8327 14.1866 97.8327 12.3634C97.8327 10.1414 100.033 8.71701 102.348 8.71701H102.464V8.66003Z" fill="white"/>
<path d="M122.957 22.277V10.6542L117.399 17.719L111.842 10.6542V22.277H110.916V8.77405H111.379L117.399 16.4086L123.42 8.77405H123.883V22.277H122.957Z" fill="white"/>
<path d="M128.109 22.277H127.125L132.798 8.77405H133.261L138.934 22.277H137.95L136.213 18.1179H129.903L128.109 22.277ZM130.193 17.2632H135.808L132.971 10.5403L130.193 17.2632Z" fill="white"/>
<path d="M146.344 8.77405C149.643 8.77405 152.191 10.4263 152.191 13.5029C152.191 15.8959 150.628 17.3202 148.428 17.89C149.238 18.1748 149.933 18.7446 150.801 20.055L152.249 22.277H151.207L149.991 20.3968C148.833 18.5737 148.023 18.2888 146.517 18.2888H143.102V22.277H142.176V8.77405H146.344ZM143.044 17.3772H146.402C149.065 17.3772 151.322 16.2377 151.322 13.5029C151.322 10.8251 149.065 9.62866 146.402 9.62866H143.044V17.3772Z" fill="white"/>
<path d="M159.543 22.277H158.616V9.62866H154.159V8.77405H164V9.62866H159.543V22.277Z" fill="white"/>
</svg>
