<svg width="22" height="47" viewBox="0 0 22 47" fill="none" xmlns="http://www.w3.org/2000/svg">
<path fill-rule="evenodd" clip-rule="evenodd" d="M0.466064 11.434C0.466064 9.53268 0.941393 7.77703 1.89206 6.16702C2.84274 4.55702 4.12306 3.2767 5.73306 2.32602C7.34307 1.37535 9.09872 0.900024 11.0001 0.900024C12.9014 0.900024 14.6571 1.37535 16.2671 2.32602C17.8771 3.2767 19.1574 4.55702 20.1081 6.16702C21.0587 7.77703 21.5341 9.53268 21.5341 11.434V28.96C21.5341 30.5854 21.1891 32.111 20.4991 33.537C19.8091 34.963 18.8507 36.1744 17.6241 37.171C16.3974 38.1677 15.0174 38.85 13.4841 39.218V37.746C15.4161 37.194 17.0107 36.113 18.2681 34.503C19.5254 32.893 20.1541 31.0454 20.1541 28.96V11.434C20.1541 9.77802 19.7401 8.25236 18.9121 6.85702C18.0841 5.46168 16.9724 4.35003 15.5771 3.52202C14.1817 2.69402 12.6561 2.28002 11.0001 2.28002C9.34406 2.28002 7.8184 2.69402 6.42306 3.52202C5.02772 4.35003 3.92374 5.46168 3.11106 6.85702C2.29839 8.25236 1.89206 9.77802 1.89206 11.434V29.006C1.89206 31.0607 2.51306 32.893 3.75506 34.503C4.99707 36.113 6.58405 37.194 8.51606 37.746V39.218C6.98272 38.85 5.60274 38.1677 4.37606 37.171C3.14939 36.1744 2.19107 34.9707 1.50106 33.56C0.811061 32.1494 0.466064 30.616 0.466064 28.96V11.434ZM9.94206 42.3V30.57C9.94206 30.3554 10.0111 30.179 10.1491 30.041C10.2871 29.903 10.4634 29.834 10.6781 29.834H11.3221C11.5367 29.834 11.7131 29.903 11.8511 30.041C11.9891 30.179 12.0581 30.3554 12.0581 30.57V42.3H15.1861C15.4007 42.3 15.5234 42.346 15.5541 42.438C15.5847 42.53 15.5387 42.6527 15.4161 42.806L11.5061 46.67C11.3834 46.8234 11.2147 46.9 11.0001 46.9C10.7854 46.9 10.6167 46.8234 10.4941 46.67L6.58406 42.806C6.4614 42.6527 6.4154 42.53 6.44606 42.438C6.47673 42.346 6.5994 42.3 6.81406 42.3H9.94206ZM11.3221 11.342H10.6781C10.4634 11.342 10.2871 11.273 10.1491 11.135C10.0111 10.997 9.94206 10.8207 9.94206 10.606V6.28202C9.94206 6.09802 10.0111 5.92936 10.1491 5.77602C10.2871 5.62269 10.4634 5.54602 10.6781 5.54602H11.3221C11.5367 5.54602 11.7131 5.62269 11.8511 5.77602C11.9891 5.92936 12.0581 6.09802 12.0581 6.28202V10.606C12.0581 10.8207 11.9891 10.997 11.8511 11.135C11.7131 11.273 11.5367 11.342 11.3221 11.342Z" fill="white"/>
</svg>
